<mxfile host="app.diagrams.net" agent="Mozilla/5.0 (Windows NT 10.0; Win64; x64) AppleWebKit/537.36 (KHTML, like Gecko) Chrome/134.0.0.0 Safari/537.36" version="25.0.3" pages="5">
  <diagram name="第 1 页" id="Sv9o-haVF2R7CprZ8iuV">
    <mxGraphModel dx="500" dy="311" grid="1" gridSize="10" guides="1" tooltips="1" connect="1" arrows="1" fold="1" page="1" pageScale="1" pageWidth="827" pageHeight="1169" math="0" shadow="0">
      <root>
        <mxCell id="0" />
        <mxCell id="1" parent="0" />
        <mxCell id="qvFZHB3GP7LvdW-2bCcP-1" value="A" style="html=1;whiteSpace=wrap;" vertex="1" parent="1">
          <mxGeometry x="360" y="260" width="90" height="40" as="geometry" />
        </mxCell>
        <mxCell id="qvFZHB3GP7LvdW-2bCcP-2" value="B" style="html=1;whiteSpace=wrap;" vertex="1" parent="1">
          <mxGeometry x="360" y="180" width="90" height="40" as="geometry" />
        </mxCell>
        <mxCell id="qvFZHB3GP7LvdW-2bCcP-4" value="D" style="html=1;whiteSpace=wrap;" vertex="1" parent="1">
          <mxGeometry x="130" y="180" width="90" height="40" as="geometry" />
        </mxCell>
        <mxCell id="qvFZHB3GP7LvdW-2bCcP-5" value="E" style="html=1;whiteSpace=wrap;" vertex="1" parent="1">
          <mxGeometry x="490" y="180" width="90" height="40" as="geometry" />
        </mxCell>
        <mxCell id="qvFZHB3GP7LvdW-2bCcP-6" value="" style="endArrow=open;endFill=1;endSize=12;html=1;rounded=0;exitX=0.5;exitY=0;exitDx=0;exitDy=0;entryX=0.5;entryY=1;entryDx=0;entryDy=0;" edge="1" parent="1" source="qvFZHB3GP7LvdW-2bCcP-1" target="qvFZHB3GP7LvdW-2bCcP-2">
          <mxGeometry width="160" relative="1" as="geometry">
            <mxPoint x="400" y="290" as="sourcePoint" />
            <mxPoint x="560" y="290" as="targetPoint" />
          </mxGeometry>
        </mxCell>
        <mxCell id="qvFZHB3GP7LvdW-2bCcP-9" value="«interface»&lt;br&gt;&lt;b&gt;C&lt;/b&gt;" style="html=1;whiteSpace=wrap;" vertex="1" parent="1">
          <mxGeometry x="250" y="180" width="90" height="40" as="geometry" />
        </mxCell>
        <mxCell id="qvFZHB3GP7LvdW-2bCcP-13" value="" style="endArrow=block;dashed=1;endFill=0;endSize=12;html=1;rounded=0;exitX=0;exitY=0.5;exitDx=0;exitDy=0;entryX=0.5;entryY=1;entryDx=0;entryDy=0;" edge="1" parent="1" source="qvFZHB3GP7LvdW-2bCcP-1" target="qvFZHB3GP7LvdW-2bCcP-9">
          <mxGeometry width="160" relative="1" as="geometry">
            <mxPoint x="370" y="290" as="sourcePoint" />
            <mxPoint x="530" y="290" as="targetPoint" />
          </mxGeometry>
        </mxCell>
        <mxCell id="qvFZHB3GP7LvdW-2bCcP-14" value="" style="endArrow=block;dashed=1;endFill=0;endSize=12;html=1;rounded=0;exitX=1;exitY=0.5;exitDx=0;exitDy=0;entryX=0;entryY=0.5;entryDx=0;entryDy=0;" edge="1" parent="1" source="qvFZHB3GP7LvdW-2bCcP-4" target="qvFZHB3GP7LvdW-2bCcP-9">
          <mxGeometry width="160" relative="1" as="geometry">
            <mxPoint x="310" y="290" as="sourcePoint" />
            <mxPoint x="470" y="290" as="targetPoint" />
          </mxGeometry>
        </mxCell>
        <mxCell id="uqn-X65x__MZn0ZDA7uv-1" value="" style="endArrow=open;endFill=1;endSize=12;html=1;rounded=0;" edge="1" parent="1">
          <mxGeometry width="160" relative="1" as="geometry">
            <mxPoint x="450" y="199.76" as="sourcePoint" />
            <mxPoint x="490" y="200" as="targetPoint" />
          </mxGeometry>
        </mxCell>
      </root>
    </mxGraphModel>
  </diagram>
  <diagram id="Yasw_smFAlLCrIBk8Tur" name="第 2 页">
    <mxGraphModel dx="875" dy="544" grid="1" gridSize="10" guides="1" tooltips="1" connect="1" arrows="1" fold="1" page="1" pageScale="1" pageWidth="827" pageHeight="1169" math="0" shadow="0">
      <root>
        <mxCell id="0" />
        <mxCell id="1" parent="0" />
        <mxCell id="do8Joph9C25-5lorL9P2-1" value="CargoPlane" style="html=1;whiteSpace=wrap;" vertex="1" parent="1">
          <mxGeometry x="50" y="220" width="100" height="40" as="geometry" />
        </mxCell>
        <mxCell id="do8Joph9C25-5lorL9P2-2" value="Pallet" style="html=1;whiteSpace=wrap;" vertex="1" parent="1">
          <mxGeometry x="210" y="220" width="100" height="40" as="geometry" />
        </mxCell>
        <mxCell id="do8Joph9C25-5lorL9P2-3" value="Box" style="html=1;whiteSpace=wrap;" vertex="1" parent="1">
          <mxGeometry x="370" y="220" width="100" height="40" as="geometry" />
        </mxCell>
        <mxCell id="do8Joph9C25-5lorL9P2-4" value="Item" style="html=1;whiteSpace=wrap;" vertex="1" parent="1">
          <mxGeometry x="530" y="220" width="100" height="40" as="geometry" />
        </mxCell>
        <mxCell id="do8Joph9C25-5lorL9P2-7" value="" style="endArrow=diamondThin;endFill=0;endSize=24;html=1;rounded=0;entryX=1;entryY=0.5;entryDx=0;entryDy=0;exitX=0;exitY=0.5;exitDx=0;exitDy=0;" edge="1" parent="1" source="do8Joph9C25-5lorL9P2-2" target="do8Joph9C25-5lorL9P2-1">
          <mxGeometry width="160" relative="1" as="geometry">
            <mxPoint x="290" y="249.17000000000002" as="sourcePoint" />
            <mxPoint x="450" y="249.17000000000002" as="targetPoint" />
          </mxGeometry>
        </mxCell>
        <mxCell id="do8Joph9C25-5lorL9P2-9" value="" style="endArrow=diamondThin;endFill=0;endSize=24;html=1;rounded=0;entryX=1;entryY=0.5;entryDx=0;entryDy=0;exitX=0;exitY=0.5;exitDx=0;exitDy=0;" edge="1" parent="1">
          <mxGeometry width="160" relative="1" as="geometry">
            <mxPoint x="370" y="239.57999999999998" as="sourcePoint" />
            <mxPoint x="310" y="239.57999999999998" as="targetPoint" />
          </mxGeometry>
        </mxCell>
        <mxCell id="do8Joph9C25-5lorL9P2-10" value="" style="endArrow=open;html=1;endSize=12;startArrow=diamondThin;startSize=14;startFill=0;edgeStyle=orthogonalEdgeStyle;align=left;verticalAlign=bottom;rounded=0;" edge="1" parent="1">
          <mxGeometry x="-1" y="3" relative="1" as="geometry">
            <mxPoint x="470" y="239.57999999999998" as="sourcePoint" />
            <mxPoint x="530" y="240" as="targetPoint" />
          </mxGeometry>
        </mxCell>
        <mxCell id="yqrc-gmdzIxxFGoob4UQ-3" value="(1..*)" style="edgeLabel;html=1;align=center;verticalAlign=middle;resizable=0;points=[];" vertex="1" connectable="0" parent="do8Joph9C25-5lorL9P2-10">
          <mxGeometry x="-0.965" y="16" relative="1" as="geometry">
            <mxPoint x="9" y="-4" as="offset" />
          </mxGeometry>
        </mxCell>
        <mxCell id="do8Joph9C25-5lorL9P2-11" value="Part" style="html=1;whiteSpace=wrap;" vertex="1" parent="1">
          <mxGeometry x="50" y="310" width="100" height="40" as="geometry" />
        </mxCell>
        <mxCell id="yqrc-gmdzIxxFGoob4UQ-1" value="(0..*)" style="text;html=1;align=center;verticalAlign=middle;resizable=0;points=[];autosize=1;strokeColor=none;fillColor=none;" vertex="1" parent="1">
          <mxGeometry x="140" y="208" width="50" height="30" as="geometry" />
        </mxCell>
        <mxCell id="yqrc-gmdzIxxFGoob4UQ-2" value="(0..*)" style="text;html=1;align=center;verticalAlign=middle;resizable=0;points=[];autosize=1;strokeColor=none;fillColor=none;" vertex="1" parent="1">
          <mxGeometry x="300" y="200" width="50" height="30" as="geometry" />
        </mxCell>
        <mxCell id="yqrc-gmdzIxxFGoob4UQ-5" value="&lt;span style=&quot;text-align: center;&quot;&gt;(1..*)&lt;/span&gt;" style="endArrow=open;html=1;endSize=12;startArrow=diamondThin;startSize=14;startFill=1;edgeStyle=orthogonalEdgeStyle;align=left;verticalAlign=bottom;rounded=0;exitX=0.5;exitY=1;exitDx=0;exitDy=0;entryX=0.5;entryY=0;entryDx=0;entryDy=0;" edge="1" parent="1" source="do8Joph9C25-5lorL9P2-1" target="do8Joph9C25-5lorL9P2-11">
          <mxGeometry x="-1" y="3" relative="1" as="geometry">
            <mxPoint x="310" y="320" as="sourcePoint" />
            <mxPoint x="100" y="300" as="targetPoint" />
            <Array as="points" />
          </mxGeometry>
        </mxCell>
        <mxCell id="yqrc-gmdzIxxFGoob4UQ-6" value="part number" style="text;html=1;align=center;verticalAlign=middle;resizable=0;points=[];autosize=1;strokeColor=none;fillColor=none;" vertex="1" parent="1">
          <mxGeometry x="455" y="238" width="90" height="30" as="geometry" />
        </mxCell>
      </root>
    </mxGraphModel>
  </diagram>
  <diagram id="J0GUND8_NFLsN2NMe5Oh" name="第 3 页">
    <mxGraphModel dx="724" dy="450" grid="1" gridSize="10" guides="1" tooltips="1" connect="1" arrows="1" fold="1" page="1" pageScale="1" pageWidth="827" pageHeight="1169" math="0" shadow="0">
      <root>
        <mxCell id="0" />
        <mxCell id="1" parent="0" />
        <mxCell id="eyrtP7PWx2iI0cR7Nu4C-2" value="University" style="html=1;whiteSpace=wrap;" vertex="1" parent="1">
          <mxGeometry x="314" y="260" width="100" height="50" as="geometry" />
        </mxCell>
        <mxCell id="eyrtP7PWx2iI0cR7Nu4C-3" value="Unit" style="html=1;whiteSpace=wrap;" vertex="1" parent="1">
          <mxGeometry x="314" y="360" width="100" height="50" as="geometry" />
        </mxCell>
        <mxCell id="eyrtP7PWx2iI0cR7Nu4C-4" value="AddressBook" style="html=1;whiteSpace=wrap;" vertex="1" parent="1">
          <mxGeometry x="314" y="460" width="100" height="50" as="geometry" />
        </mxCell>
        <mxCell id="b41cEDTIarg4n9Pjkb47-9" value="" style="endArrow=diamondThin;endFill=1;endSize=24;html=1;rounded=0;exitX=0.5;exitY=0;exitDx=0;exitDy=0;" edge="1" parent="1" source="eyrtP7PWx2iI0cR7Nu4C-4" target="eyrtP7PWx2iI0cR7Nu4C-3">
          <mxGeometry width="160" relative="1" as="geometry">
            <mxPoint x="300" y="400" as="sourcePoint" />
            <mxPoint x="460" y="400" as="targetPoint" />
          </mxGeometry>
        </mxCell>
        <mxCell id="b41cEDTIarg4n9Pjkb47-11" value="" style="endArrow=diamondThin;endFill=1;endSize=24;html=1;rounded=0;exitX=0.5;exitY=0;exitDx=0;exitDy=0;" edge="1" parent="1">
          <mxGeometry width="160" relative="1" as="geometry">
            <mxPoint x="363.65999999999997" y="360" as="sourcePoint" />
            <mxPoint x="363.65999999999997" y="310" as="targetPoint" />
          </mxGeometry>
        </mxCell>
        <mxCell id="b41cEDTIarg4n9Pjkb47-12" value="(1..*)" style="text;html=1;align=center;verticalAlign=middle;resizable=0;points=[];autosize=1;strokeColor=none;fillColor=none;" vertex="1" parent="1">
          <mxGeometry x="364" y="310" width="50" height="30" as="geometry" />
        </mxCell>
        <mxCell id="b41cEDTIarg4n9Pjkb47-13" value="(1..1)" style="text;html=1;align=center;verticalAlign=middle;resizable=0;points=[];autosize=1;strokeColor=none;fillColor=none;" vertex="1" parent="1">
          <mxGeometry x="364" y="408" width="50" height="30" as="geometry" />
        </mxCell>
        <mxCell id="aVzruIwpDYPAywvHVLfk-1" value="(0..*)" style="endArrow=open;html=1;endSize=12;startArrow=diamondThin;startSize=14;startFill=0;edgeStyle=orthogonalEdgeStyle;align=left;verticalAlign=bottom;rounded=0;" edge="1" parent="1">
          <mxGeometry x="-1" y="3" relative="1" as="geometry">
            <mxPoint x="414" y="390" as="sourcePoint" />
            <mxPoint x="470" y="390" as="targetPoint" />
          </mxGeometry>
        </mxCell>
        <mxCell id="aVzruIwpDYPAywvHVLfk-2" value="[ Faculty | Student | Staff ]" style="text;html=1;align=center;verticalAlign=middle;resizable=0;points=[];autosize=1;strokeColor=none;fillColor=none;" vertex="1" parent="1">
          <mxGeometry x="470" y="370" width="160" height="30" as="geometry" />
        </mxCell>
        <mxCell id="aVzruIwpDYPAywvHVLfk-3" value="(0..*)" style="endArrow=open;html=1;endSize=12;startArrow=diamondThin;startSize=14;startFill=0;edgeStyle=orthogonalEdgeStyle;align=left;verticalAlign=bottom;rounded=0;" edge="1" parent="1">
          <mxGeometry x="-1" y="3" relative="1" as="geometry">
            <mxPoint x="414" y="484.66" as="sourcePoint" />
            <mxPoint x="470" y="484.66" as="targetPoint" />
          </mxGeometry>
        </mxCell>
        <mxCell id="aVzruIwpDYPAywvHVLfk-4" value="Entry" style="text;html=1;align=center;verticalAlign=middle;resizable=0;points=[];autosize=1;strokeColor=none;fillColor=none;" vertex="1" parent="1">
          <mxGeometry x="470" y="470" width="50" height="30" as="geometry" />
        </mxCell>
        <mxCell id="aVzruIwpDYPAywvHVLfk-5" value="&lt;div&gt;Entry&amp;nbsp; ── (search by lastName or UniversityId)&lt;/div&gt;&lt;div&gt;&lt;br&gt;&lt;/div&gt;" style="text;html=1;align=center;verticalAlign=middle;resizable=0;points=[];autosize=1;strokeColor=none;fillColor=none;" vertex="1" parent="1">
          <mxGeometry x="450" y="510" width="270" height="40" as="geometry" />
        </mxCell>
        <mxCell id="aVzruIwpDYPAywvHVLfk-6" value="Faculty" style="text;html=1;align=center;verticalAlign=middle;resizable=0;points=[];autosize=1;strokeColor=none;fillColor=none;" vertex="1" parent="1">
          <mxGeometry x="220" y="558" width="60" height="30" as="geometry" />
        </mxCell>
        <mxCell id="fpHqNAd6Dff4wvSHIraU-1" value="" style="endArrow=block;dashed=1;endFill=0;endSize=12;html=1;rounded=0;exitX=0.966;exitY=0.598;exitDx=0;exitDy=0;exitPerimeter=0;" edge="1" parent="1" target="fpHqNAd6Dff4wvSHIraU-2">
          <mxGeometry width="160" relative="1" as="geometry">
            <mxPoint x="279.99999999999994" y="572.6599999999999" as="sourcePoint" />
            <mxPoint x="322.04" y="572.72" as="targetPoint" />
          </mxGeometry>
        </mxCell>
        <mxCell id="fpHqNAd6Dff4wvSHIraU-2" value="Student" style="text;html=1;align=center;verticalAlign=middle;resizable=0;points=[];autosize=1;strokeColor=none;fillColor=none;" vertex="1" parent="1">
          <mxGeometry x="334" y="558" width="60" height="30" as="geometry" />
        </mxCell>
        <mxCell id="fpHqNAd6Dff4wvSHIraU-3" value="(0..*)" style="text;whiteSpace=wrap;html=1;" vertex="1" parent="1">
          <mxGeometry x="280" y="548" width="60" height="40" as="geometry" />
        </mxCell>
      </root>
    </mxGraphModel>
  </diagram>
  <diagram id="gBCHvxULvK8HAyGwh64l" name="第 4 页">
    <mxGraphModel dx="1994" dy="726" grid="1" gridSize="10" guides="1" tooltips="1" connect="1" arrows="1" fold="1" page="1" pageScale="1" pageWidth="827" pageHeight="1169" math="0" shadow="0">
      <root>
        <mxCell id="0" />
        <mxCell id="1" parent="0" />
        <mxCell id="TaatviVAItFqC_jSMe_Q-2" value="Animal" style="swimlane;fontStyle=0;childLayout=stackLayout;horizontal=1;startSize=26;fillColor=none;horizontalStack=0;resizeParent=1;resizeParentMax=0;resizeLast=0;collapsible=1;marginBottom=0;whiteSpace=wrap;html=1;" vertex="1" parent="1">
          <mxGeometry x="340" y="120" width="140" height="104" as="geometry" />
        </mxCell>
        <mxCell id="TaatviVAItFqC_jSMe_Q-3" value="sleep()" style="text;strokeColor=none;fillColor=none;align=left;verticalAlign=top;spacingLeft=4;spacingRight=4;overflow=hidden;rotatable=0;points=[[0,0.5],[1,0.5]];portConstraint=eastwest;whiteSpace=wrap;html=1;" vertex="1" parent="TaatviVAItFqC_jSMe_Q-2">
          <mxGeometry y="26" width="140" height="26" as="geometry" />
        </mxCell>
        <mxCell id="TaatviVAItFqC_jSMe_Q-4" value="play()" style="text;strokeColor=none;fillColor=none;align=left;verticalAlign=top;spacingLeft=4;spacingRight=4;overflow=hidden;rotatable=0;points=[[0,0.5],[1,0.5]];portConstraint=eastwest;whiteSpace=wrap;html=1;" vertex="1" parent="TaatviVAItFqC_jSMe_Q-2">
          <mxGeometry y="52" width="140" height="26" as="geometry" />
        </mxCell>
        <mxCell id="TaatviVAItFqC_jSMe_Q-5" value="takeForWalk()" style="text;strokeColor=none;fillColor=none;align=left;verticalAlign=top;spacingLeft=4;spacingRight=4;overflow=hidden;rotatable=0;points=[[0,0.5],[1,0.5]];portConstraint=eastwest;whiteSpace=wrap;html=1;" vertex="1" parent="TaatviVAItFqC_jSMe_Q-2">
          <mxGeometry y="78" width="140" height="26" as="geometry" />
        </mxCell>
        <mxCell id="TaatviVAItFqC_jSMe_Q-6" value="Pachyderm" style="swimlane;fontStyle=0;childLayout=stackLayout;horizontal=1;startSize=26;fillColor=none;horizontalStack=0;resizeParent=1;resizeParentMax=0;resizeLast=0;collapsible=1;marginBottom=0;whiteSpace=wrap;html=1;" vertex="1" parent="1">
          <mxGeometry x="130" y="280" width="140" height="52" as="geometry" />
        </mxCell>
        <mxCell id="TaatviVAItFqC_jSMe_Q-7" value="roam()" style="text;strokeColor=none;fillColor=none;align=left;verticalAlign=top;spacingLeft=4;spacingRight=4;overflow=hidden;rotatable=0;points=[[0,0.5],[1,0.5]];portConstraint=eastwest;whiteSpace=wrap;html=1;" vertex="1" parent="TaatviVAItFqC_jSMe_Q-6">
          <mxGeometry y="26" width="140" height="26" as="geometry" />
        </mxCell>
        <mxCell id="TaatviVAItFqC_jSMe_Q-10" value="Feline" style="swimlane;fontStyle=0;childLayout=stackLayout;horizontal=1;startSize=26;fillColor=none;horizontalStack=0;resizeParent=1;resizeParentMax=0;resizeLast=0;collapsible=1;marginBottom=0;whiteSpace=wrap;html=1;" vertex="1" parent="1">
          <mxGeometry x="340" y="280" width="140" height="52" as="geometry" />
        </mxCell>
        <mxCell id="TaatviVAItFqC_jSMe_Q-11" value="roam()" style="text;strokeColor=none;fillColor=none;align=left;verticalAlign=top;spacingLeft=4;spacingRight=4;overflow=hidden;rotatable=0;points=[[0,0.5],[1,0.5]];portConstraint=eastwest;whiteSpace=wrap;html=1;" vertex="1" parent="TaatviVAItFqC_jSMe_Q-10">
          <mxGeometry y="26" width="140" height="26" as="geometry" />
        </mxCell>
        <mxCell id="TaatviVAItFqC_jSMe_Q-12" value="Canine" style="swimlane;fontStyle=0;childLayout=stackLayout;horizontal=1;startSize=26;fillColor=none;horizontalStack=0;resizeParent=1;resizeParentMax=0;resizeLast=0;collapsible=1;marginBottom=0;whiteSpace=wrap;html=1;" vertex="1" parent="1">
          <mxGeometry x="590" y="280" width="140" height="52" as="geometry" />
        </mxCell>
        <mxCell id="TaatviVAItFqC_jSMe_Q-13" value="roam()" style="text;strokeColor=none;fillColor=none;align=left;verticalAlign=top;spacingLeft=4;spacingRight=4;overflow=hidden;rotatable=0;points=[[0,0.5],[1,0.5]];portConstraint=eastwest;whiteSpace=wrap;html=1;" vertex="1" parent="TaatviVAItFqC_jSMe_Q-12">
          <mxGeometry y="26" width="140" height="26" as="geometry" />
        </mxCell>
        <mxCell id="HFvrydmGuC6GJipbI0SV-1" value="" style="endArrow=open;endFill=1;endSize=12;html=1;rounded=0;exitX=0.44;exitY=-0.027;exitDx=0;exitDy=0;exitPerimeter=0;entryX=0.38;entryY=1.008;entryDx=0;entryDy=0;entryPerimeter=0;" edge="1" parent="1" source="TaatviVAItFqC_jSMe_Q-6" target="TaatviVAItFqC_jSMe_Q-5">
          <mxGeometry width="160" relative="1" as="geometry">
            <mxPoint x="330" y="340" as="sourcePoint" />
            <mxPoint x="490" y="340" as="targetPoint" />
          </mxGeometry>
        </mxCell>
        <mxCell id="HFvrydmGuC6GJipbI0SV-3" value="" style="endArrow=open;endFill=1;endSize=12;html=1;rounded=0;exitX=0.5;exitY=0;exitDx=0;exitDy=0;entryX=0.5;entryY=0.977;entryDx=0;entryDy=0;entryPerimeter=0;" edge="1" parent="1" source="TaatviVAItFqC_jSMe_Q-10" target="TaatviVAItFqC_jSMe_Q-5">
          <mxGeometry width="160" relative="1" as="geometry">
            <mxPoint x="330" y="340" as="sourcePoint" />
            <mxPoint x="490" y="340" as="targetPoint" />
          </mxGeometry>
        </mxCell>
        <mxCell id="HFvrydmGuC6GJipbI0SV-4" value="" style="endArrow=open;endFill=1;endSize=12;html=1;rounded=0;exitX=0.5;exitY=0;exitDx=0;exitDy=0;entryX=0.557;entryY=1.038;entryDx=0;entryDy=0;entryPerimeter=0;" edge="1" parent="1" source="TaatviVAItFqC_jSMe_Q-12" target="TaatviVAItFqC_jSMe_Q-5">
          <mxGeometry width="160" relative="1" as="geometry">
            <mxPoint x="330" y="340" as="sourcePoint" />
            <mxPoint x="490" y="340" as="targetPoint" />
          </mxGeometry>
        </mxCell>
        <mxCell id="HFvrydmGuC6GJipbI0SV-5" value="Hippo" style="swimlane;fontStyle=0;childLayout=stackLayout;horizontal=1;startSize=26;fillColor=none;horizontalStack=0;resizeParent=1;resizeParentMax=0;resizeLast=0;collapsible=1;marginBottom=0;whiteSpace=wrap;html=1;" vertex="1" parent="1">
          <mxGeometry x="-60" y="390" width="140" height="52" as="geometry" />
        </mxCell>
        <mxCell id="HFvrydmGuC6GJipbI0SV-6" value="makeNoise()" style="text;strokeColor=none;fillColor=none;align=left;verticalAlign=top;spacingLeft=4;spacingRight=4;overflow=hidden;rotatable=0;points=[[0,0.5],[1,0.5]];portConstraint=eastwest;whiteSpace=wrap;html=1;" vertex="1" parent="HFvrydmGuC6GJipbI0SV-5">
          <mxGeometry y="26" width="140" height="26" as="geometry" />
        </mxCell>
        <mxCell id="HFvrydmGuC6GJipbI0SV-9" value="Elephant" style="swimlane;fontStyle=0;childLayout=stackLayout;horizontal=1;startSize=26;fillColor=none;horizontalStack=0;resizeParent=1;resizeParentMax=0;resizeLast=0;collapsible=1;marginBottom=0;whiteSpace=wrap;html=1;" vertex="1" parent="1">
          <mxGeometry x="10" y="480" width="140" height="52" as="geometry" />
        </mxCell>
        <mxCell id="HFvrydmGuC6GJipbI0SV-10" value="makeNoise()" style="text;strokeColor=none;fillColor=none;align=left;verticalAlign=top;spacingLeft=4;spacingRight=4;overflow=hidden;rotatable=0;points=[[0,0.5],[1,0.5]];portConstraint=eastwest;whiteSpace=wrap;html=1;" vertex="1" parent="HFvrydmGuC6GJipbI0SV-9">
          <mxGeometry y="26" width="140" height="26" as="geometry" />
        </mxCell>
        <mxCell id="HFvrydmGuC6GJipbI0SV-11" value="Rhino" style="swimlane;fontStyle=0;childLayout=stackLayout;horizontal=1;startSize=26;fillColor=none;horizontalStack=0;resizeParent=1;resizeParentMax=0;resizeLast=0;collapsible=1;marginBottom=0;whiteSpace=wrap;html=1;" vertex="1" parent="1">
          <mxGeometry x="150" y="410" width="140" height="52" as="geometry" />
        </mxCell>
        <mxCell id="HFvrydmGuC6GJipbI0SV-12" value="makeNoise()" style="text;strokeColor=none;fillColor=none;align=left;verticalAlign=top;spacingLeft=4;spacingRight=4;overflow=hidden;rotatable=0;points=[[0,0.5],[1,0.5]];portConstraint=eastwest;whiteSpace=wrap;html=1;" vertex="1" parent="HFvrydmGuC6GJipbI0SV-11">
          <mxGeometry y="26" width="140" height="26" as="geometry" />
        </mxCell>
        <mxCell id="HFvrydmGuC6GJipbI0SV-13" value="" style="endArrow=open;endFill=1;endSize=12;html=1;rounded=0;exitX=0.45;exitY=-0.05;exitDx=0;exitDy=0;exitPerimeter=0;entryX=0.424;entryY=1.162;entryDx=0;entryDy=0;entryPerimeter=0;" edge="1" parent="1" source="HFvrydmGuC6GJipbI0SV-5" target="TaatviVAItFqC_jSMe_Q-7">
          <mxGeometry width="160" relative="1" as="geometry">
            <mxPoint x="330" y="340" as="sourcePoint" />
            <mxPoint x="490" y="340" as="targetPoint" />
          </mxGeometry>
        </mxCell>
        <mxCell id="HFvrydmGuC6GJipbI0SV-14" value="" style="endArrow=open;endFill=1;endSize=12;html=1;rounded=0;exitX=0.5;exitY=0;exitDx=0;exitDy=0;entryX=0.419;entryY=0.854;entryDx=0;entryDy=0;entryPerimeter=0;" edge="1" parent="1" source="HFvrydmGuC6GJipbI0SV-9" target="TaatviVAItFqC_jSMe_Q-7">
          <mxGeometry width="160" relative="1" as="geometry">
            <mxPoint x="330" y="340" as="sourcePoint" />
            <mxPoint x="180" y="340" as="targetPoint" />
          </mxGeometry>
        </mxCell>
        <mxCell id="HFvrydmGuC6GJipbI0SV-15" value="" style="endArrow=open;endFill=1;endSize=12;html=1;rounded=0;exitX=0.396;exitY=-0.035;exitDx=0;exitDy=0;exitPerimeter=0;" edge="1" parent="1" source="HFvrydmGuC6GJipbI0SV-11">
          <mxGeometry width="160" relative="1" as="geometry">
            <mxPoint x="330" y="340" as="sourcePoint" />
            <mxPoint x="190" y="330" as="targetPoint" />
          </mxGeometry>
        </mxCell>
        <mxCell id="HFvrydmGuC6GJipbI0SV-16" value="Tiger" style="swimlane;fontStyle=0;childLayout=stackLayout;horizontal=1;startSize=26;fillColor=none;horizontalStack=0;resizeParent=1;resizeParentMax=0;resizeLast=0;collapsible=1;marginBottom=0;whiteSpace=wrap;html=1;" vertex="1" parent="1">
          <mxGeometry x="260" y="490" width="140" height="52" as="geometry" />
        </mxCell>
        <mxCell id="HFvrydmGuC6GJipbI0SV-17" value="makeNoise()" style="text;strokeColor=none;fillColor=none;align=left;verticalAlign=top;spacingLeft=4;spacingRight=4;overflow=hidden;rotatable=0;points=[[0,0.5],[1,0.5]];portConstraint=eastwest;whiteSpace=wrap;html=1;" vertex="1" parent="HFvrydmGuC6GJipbI0SV-16">
          <mxGeometry y="26" width="140" height="26" as="geometry" />
        </mxCell>
        <mxCell id="HFvrydmGuC6GJipbI0SV-18" value="Lion" style="swimlane;fontStyle=0;childLayout=stackLayout;horizontal=1;startSize=26;fillColor=none;horizontalStack=0;resizeParent=1;resizeParentMax=0;resizeLast=0;collapsible=1;marginBottom=0;whiteSpace=wrap;html=1;" vertex="1" parent="1">
          <mxGeometry x="380" y="420" width="140" height="52" as="geometry" />
        </mxCell>
        <mxCell id="HFvrydmGuC6GJipbI0SV-19" value="makeNoise()" style="text;strokeColor=none;fillColor=none;align=left;verticalAlign=top;spacingLeft=4;spacingRight=4;overflow=hidden;rotatable=0;points=[[0,0.5],[1,0.5]];portConstraint=eastwest;whiteSpace=wrap;html=1;" vertex="1" parent="HFvrydmGuC6GJipbI0SV-18">
          <mxGeometry y="26" width="140" height="26" as="geometry" />
        </mxCell>
        <mxCell id="HFvrydmGuC6GJipbI0SV-20" value="Cat" style="swimlane;fontStyle=0;childLayout=stackLayout;horizontal=1;startSize=26;fillColor=none;horizontalStack=0;resizeParent=1;resizeParentMax=0;resizeLast=0;collapsible=1;marginBottom=0;whiteSpace=wrap;html=1;" vertex="1" parent="1">
          <mxGeometry x="500" y="490" width="140" height="52" as="geometry" />
        </mxCell>
        <mxCell id="HFvrydmGuC6GJipbI0SV-21" value="makeNoise()" style="text;strokeColor=none;fillColor=none;align=left;verticalAlign=top;spacingLeft=4;spacingRight=4;overflow=hidden;rotatable=0;points=[[0,0.5],[1,0.5]];portConstraint=eastwest;whiteSpace=wrap;html=1;" vertex="1" parent="HFvrydmGuC6GJipbI0SV-20">
          <mxGeometry y="26" width="140" height="26" as="geometry" />
        </mxCell>
        <mxCell id="HFvrydmGuC6GJipbI0SV-22" value="" style="endArrow=open;endFill=1;endSize=12;html=1;rounded=0;entryX=0.467;entryY=1.162;entryDx=0;entryDy=0;entryPerimeter=0;" edge="1" parent="1" target="TaatviVAItFqC_jSMe_Q-11">
          <mxGeometry width="160" relative="1" as="geometry">
            <mxPoint x="320" y="490" as="sourcePoint" />
            <mxPoint x="490" y="340" as="targetPoint" />
          </mxGeometry>
        </mxCell>
        <mxCell id="HFvrydmGuC6GJipbI0SV-23" value="" style="endArrow=open;endFill=1;endSize=12;html=1;rounded=0;exitX=0.416;exitY=-0.058;exitDx=0;exitDy=0;exitPerimeter=0;" edge="1" parent="1" source="HFvrydmGuC6GJipbI0SV-18">
          <mxGeometry width="160" relative="1" as="geometry">
            <mxPoint x="330" y="340" as="sourcePoint" />
            <mxPoint x="410" y="330" as="targetPoint" />
          </mxGeometry>
        </mxCell>
        <mxCell id="HFvrydmGuC6GJipbI0SV-24" value="" style="endArrow=open;endFill=1;endSize=12;html=1;rounded=0;exitX=0.5;exitY=0;exitDx=0;exitDy=0;" edge="1" parent="1" source="HFvrydmGuC6GJipbI0SV-20">
          <mxGeometry width="160" relative="1" as="geometry">
            <mxPoint x="330" y="340" as="sourcePoint" />
            <mxPoint x="420" y="340" as="targetPoint" />
          </mxGeometry>
        </mxCell>
        <mxCell id="HFvrydmGuC6GJipbI0SV-25" value="Wolf" style="swimlane;fontStyle=0;childLayout=stackLayout;horizontal=1;startSize=26;fillColor=none;horizontalStack=0;resizeParent=1;resizeParentMax=0;resizeLast=0;collapsible=1;marginBottom=0;whiteSpace=wrap;html=1;" vertex="1" parent="1">
          <mxGeometry x="550" y="390" width="140" height="52" as="geometry" />
        </mxCell>
        <mxCell id="HFvrydmGuC6GJipbI0SV-26" value="makeNoise()" style="text;strokeColor=none;fillColor=none;align=left;verticalAlign=top;spacingLeft=4;spacingRight=4;overflow=hidden;rotatable=0;points=[[0,0.5],[1,0.5]];portConstraint=eastwest;whiteSpace=wrap;html=1;" vertex="1" parent="HFvrydmGuC6GJipbI0SV-25">
          <mxGeometry y="26" width="140" height="26" as="geometry" />
        </mxCell>
        <mxCell id="HFvrydmGuC6GJipbI0SV-27" value="Dog" style="swimlane;fontStyle=0;childLayout=stackLayout;horizontal=1;startSize=26;fillColor=none;horizontalStack=0;resizeParent=1;resizeParentMax=0;resizeLast=0;collapsible=1;marginBottom=0;whiteSpace=wrap;html=1;" vertex="1" parent="1">
          <mxGeometry x="720" y="428" width="140" height="52" as="geometry" />
        </mxCell>
        <mxCell id="HFvrydmGuC6GJipbI0SV-28" value="makeNoise()" style="text;strokeColor=none;fillColor=none;align=left;verticalAlign=top;spacingLeft=4;spacingRight=4;overflow=hidden;rotatable=0;points=[[0,0.5],[1,0.5]];portConstraint=eastwest;whiteSpace=wrap;html=1;" vertex="1" parent="HFvrydmGuC6GJipbI0SV-27">
          <mxGeometry y="26" width="140" height="26" as="geometry" />
        </mxCell>
        <mxCell id="HFvrydmGuC6GJipbI0SV-29" value="" style="endArrow=open;endFill=1;endSize=12;html=1;rounded=0;exitX=0.5;exitY=0;exitDx=0;exitDy=0;entryX=0.459;entryY=1.069;entryDx=0;entryDy=0;entryPerimeter=0;" edge="1" parent="1" source="HFvrydmGuC6GJipbI0SV-25" target="TaatviVAItFqC_jSMe_Q-13">
          <mxGeometry width="160" relative="1" as="geometry">
            <mxPoint x="330" y="340" as="sourcePoint" />
            <mxPoint x="490" y="340" as="targetPoint" />
          </mxGeometry>
        </mxCell>
        <mxCell id="HFvrydmGuC6GJipbI0SV-30" value="" style="endArrow=open;endFill=1;endSize=12;html=1;rounded=0;exitX=0.456;exitY=-0.027;exitDx=0;exitDy=0;exitPerimeter=0;entryX=0.493;entryY=1.162;entryDx=0;entryDy=0;entryPerimeter=0;" edge="1" parent="1" source="HFvrydmGuC6GJipbI0SV-27" target="TaatviVAItFqC_jSMe_Q-13">
          <mxGeometry width="160" relative="1" as="geometry">
            <mxPoint x="330" y="340" as="sourcePoint" />
            <mxPoint x="490" y="340" as="targetPoint" />
          </mxGeometry>
        </mxCell>
      </root>
    </mxGraphModel>
  </diagram>
  <diagram id="v6w7q0rMFDOKHMkeX1nw" name="第 5 页">
    <mxGraphModel dx="1050" dy="653" grid="1" gridSize="10" guides="1" tooltips="1" connect="1" arrows="1" fold="1" page="1" pageScale="1" pageWidth="827" pageHeight="1169" math="0" shadow="0">
      <root>
        <mxCell id="0" />
        <mxCell id="1" parent="0" />
        <mxCell id="Bet7bIUid-jiXLrSmDMM-1" value="Animal" style="swimlane;fontStyle=0;childLayout=stackLayout;horizontal=1;startSize=26;fillColor=none;horizontalStack=0;resizeParent=1;resizeParentMax=0;resizeLast=0;collapsible=1;marginBottom=0;whiteSpace=wrap;html=1;" vertex="1" parent="1">
          <mxGeometry x="710" y="270" width="140" height="52" as="geometry" />
        </mxCell>
        <mxCell id="Bet7bIUid-jiXLrSmDMM-2" value="sleep()" style="text;strokeColor=none;fillColor=none;align=left;verticalAlign=top;spacingLeft=4;spacingRight=4;overflow=hidden;rotatable=0;points=[[0,0.5],[1,0.5]];portConstraint=eastwest;whiteSpace=wrap;html=1;" vertex="1" parent="Bet7bIUid-jiXLrSmDMM-1">
          <mxGeometry y="26" width="140" height="26" as="geometry" />
        </mxCell>
        <mxCell id="Bet7bIUid-jiXLrSmDMM-5" value="Pachyderm" style="swimlane;fontStyle=0;childLayout=stackLayout;horizontal=1;startSize=26;fillColor=none;horizontalStack=0;resizeParent=1;resizeParentMax=0;resizeLast=0;collapsible=1;marginBottom=0;whiteSpace=wrap;html=1;" vertex="1" parent="1">
          <mxGeometry x="490" y="380" width="140" height="52" as="geometry" />
        </mxCell>
        <mxCell id="Bet7bIUid-jiXLrSmDMM-6" value="roam()" style="text;strokeColor=none;fillColor=none;align=left;verticalAlign=top;spacingLeft=4;spacingRight=4;overflow=hidden;rotatable=0;points=[[0,0.5],[1,0.5]];portConstraint=eastwest;whiteSpace=wrap;html=1;" vertex="1" parent="Bet7bIUid-jiXLrSmDMM-5">
          <mxGeometry y="26" width="140" height="26" as="geometry" />
        </mxCell>
        <mxCell id="Bet7bIUid-jiXLrSmDMM-7" value="Feline" style="swimlane;fontStyle=0;childLayout=stackLayout;horizontal=1;startSize=26;fillColor=none;horizontalStack=0;resizeParent=1;resizeParentMax=0;resizeLast=0;collapsible=1;marginBottom=0;whiteSpace=wrap;html=1;" vertex="1" parent="1">
          <mxGeometry x="700" y="380" width="140" height="52" as="geometry" />
        </mxCell>
        <mxCell id="Bet7bIUid-jiXLrSmDMM-8" value="roam()" style="text;strokeColor=none;fillColor=none;align=left;verticalAlign=top;spacingLeft=4;spacingRight=4;overflow=hidden;rotatable=0;points=[[0,0.5],[1,0.5]];portConstraint=eastwest;whiteSpace=wrap;html=1;" vertex="1" parent="Bet7bIUid-jiXLrSmDMM-7">
          <mxGeometry y="26" width="140" height="26" as="geometry" />
        </mxCell>
        <mxCell id="Bet7bIUid-jiXLrSmDMM-9" value="Canine" style="swimlane;fontStyle=0;childLayout=stackLayout;horizontal=1;startSize=26;fillColor=none;horizontalStack=0;resizeParent=1;resizeParentMax=0;resizeLast=0;collapsible=1;marginBottom=0;whiteSpace=wrap;html=1;" vertex="1" parent="1">
          <mxGeometry x="950" y="380" width="140" height="52" as="geometry" />
        </mxCell>
        <mxCell id="Bet7bIUid-jiXLrSmDMM-10" value="roam()" style="text;strokeColor=none;fillColor=none;align=left;verticalAlign=top;spacingLeft=4;spacingRight=4;overflow=hidden;rotatable=0;points=[[0,0.5],[1,0.5]];portConstraint=eastwest;whiteSpace=wrap;html=1;" vertex="1" parent="Bet7bIUid-jiXLrSmDMM-9">
          <mxGeometry y="26" width="140" height="26" as="geometry" />
        </mxCell>
        <mxCell id="Bet7bIUid-jiXLrSmDMM-11" value="" style="endArrow=open;endFill=1;endSize=12;html=1;rounded=0;exitX=0.44;exitY=-0.027;exitDx=0;exitDy=0;exitPerimeter=0;entryX=0.38;entryY=1.008;entryDx=0;entryDy=0;entryPerimeter=0;" edge="1" parent="1" source="Bet7bIUid-jiXLrSmDMM-5">
          <mxGeometry width="160" relative="1" as="geometry">
            <mxPoint x="690" y="440" as="sourcePoint" />
            <mxPoint x="753.2" y="324.20799999999997" as="targetPoint" />
          </mxGeometry>
        </mxCell>
        <mxCell id="Bet7bIUid-jiXLrSmDMM-12" value="" style="endArrow=open;endFill=1;endSize=12;html=1;rounded=0;exitX=0.5;exitY=0;exitDx=0;exitDy=0;entryX=0.5;entryY=0.977;entryDx=0;entryDy=0;entryPerimeter=0;" edge="1" parent="1" source="Bet7bIUid-jiXLrSmDMM-7">
          <mxGeometry width="160" relative="1" as="geometry">
            <mxPoint x="690" y="440" as="sourcePoint" />
            <mxPoint x="770" y="323.40200000000004" as="targetPoint" />
          </mxGeometry>
        </mxCell>
        <mxCell id="Bet7bIUid-jiXLrSmDMM-13" value="" style="endArrow=open;endFill=1;endSize=12;html=1;rounded=0;exitX=0.5;exitY=0;exitDx=0;exitDy=0;entryX=0.557;entryY=1.038;entryDx=0;entryDy=0;entryPerimeter=0;" edge="1" parent="1" source="Bet7bIUid-jiXLrSmDMM-9">
          <mxGeometry width="160" relative="1" as="geometry">
            <mxPoint x="690" y="440" as="sourcePoint" />
            <mxPoint x="777.98" y="324.98800000000006" as="targetPoint" />
          </mxGeometry>
        </mxCell>
        <mxCell id="Bet7bIUid-jiXLrSmDMM-14" value="Hippo" style="swimlane;fontStyle=0;childLayout=stackLayout;horizontal=1;startSize=26;fillColor=none;horizontalStack=0;resizeParent=1;resizeParentMax=0;resizeLast=0;collapsible=1;marginBottom=0;whiteSpace=wrap;html=1;" vertex="1" parent="1">
          <mxGeometry x="300" y="490" width="140" height="52" as="geometry" />
        </mxCell>
        <mxCell id="Bet7bIUid-jiXLrSmDMM-15" value="makeNoise()" style="text;strokeColor=none;fillColor=none;align=left;verticalAlign=top;spacingLeft=4;spacingRight=4;overflow=hidden;rotatable=0;points=[[0,0.5],[1,0.5]];portConstraint=eastwest;whiteSpace=wrap;html=1;" vertex="1" parent="Bet7bIUid-jiXLrSmDMM-14">
          <mxGeometry y="26" width="140" height="26" as="geometry" />
        </mxCell>
        <mxCell id="Bet7bIUid-jiXLrSmDMM-16" value="Elephant" style="swimlane;fontStyle=0;childLayout=stackLayout;horizontal=1;startSize=26;fillColor=none;horizontalStack=0;resizeParent=1;resizeParentMax=0;resizeLast=0;collapsible=1;marginBottom=0;whiteSpace=wrap;html=1;" vertex="1" parent="1">
          <mxGeometry x="370" y="580" width="140" height="52" as="geometry" />
        </mxCell>
        <mxCell id="Bet7bIUid-jiXLrSmDMM-17" value="makeNoise()" style="text;strokeColor=none;fillColor=none;align=left;verticalAlign=top;spacingLeft=4;spacingRight=4;overflow=hidden;rotatable=0;points=[[0,0.5],[1,0.5]];portConstraint=eastwest;whiteSpace=wrap;html=1;" vertex="1" parent="Bet7bIUid-jiXLrSmDMM-16">
          <mxGeometry y="26" width="140" height="26" as="geometry" />
        </mxCell>
        <mxCell id="Bet7bIUid-jiXLrSmDMM-18" value="Rhino" style="swimlane;fontStyle=0;childLayout=stackLayout;horizontal=1;startSize=26;fillColor=none;horizontalStack=0;resizeParent=1;resizeParentMax=0;resizeLast=0;collapsible=1;marginBottom=0;whiteSpace=wrap;html=1;" vertex="1" parent="1">
          <mxGeometry x="510" y="510" width="140" height="52" as="geometry" />
        </mxCell>
        <mxCell id="Bet7bIUid-jiXLrSmDMM-19" value="makeNoise()" style="text;strokeColor=none;fillColor=none;align=left;verticalAlign=top;spacingLeft=4;spacingRight=4;overflow=hidden;rotatable=0;points=[[0,0.5],[1,0.5]];portConstraint=eastwest;whiteSpace=wrap;html=1;" vertex="1" parent="Bet7bIUid-jiXLrSmDMM-18">
          <mxGeometry y="26" width="140" height="26" as="geometry" />
        </mxCell>
        <mxCell id="Bet7bIUid-jiXLrSmDMM-20" value="" style="endArrow=open;endFill=1;endSize=12;html=1;rounded=0;exitX=0.45;exitY=-0.05;exitDx=0;exitDy=0;exitPerimeter=0;entryX=0.424;entryY=1.162;entryDx=0;entryDy=0;entryPerimeter=0;" edge="1" parent="1" source="Bet7bIUid-jiXLrSmDMM-14" target="Bet7bIUid-jiXLrSmDMM-6">
          <mxGeometry width="160" relative="1" as="geometry">
            <mxPoint x="690" y="440" as="sourcePoint" />
            <mxPoint x="850" y="440" as="targetPoint" />
          </mxGeometry>
        </mxCell>
        <mxCell id="Bet7bIUid-jiXLrSmDMM-21" value="" style="endArrow=open;endFill=1;endSize=12;html=1;rounded=0;exitX=0.5;exitY=0;exitDx=0;exitDy=0;entryX=0.419;entryY=0.854;entryDx=0;entryDy=0;entryPerimeter=0;" edge="1" parent="1" source="Bet7bIUid-jiXLrSmDMM-16" target="Bet7bIUid-jiXLrSmDMM-6">
          <mxGeometry width="160" relative="1" as="geometry">
            <mxPoint x="690" y="440" as="sourcePoint" />
            <mxPoint x="540" y="440" as="targetPoint" />
          </mxGeometry>
        </mxCell>
        <mxCell id="Bet7bIUid-jiXLrSmDMM-22" value="" style="endArrow=open;endFill=1;endSize=12;html=1;rounded=0;exitX=0.396;exitY=-0.035;exitDx=0;exitDy=0;exitPerimeter=0;" edge="1" parent="1" source="Bet7bIUid-jiXLrSmDMM-18">
          <mxGeometry width="160" relative="1" as="geometry">
            <mxPoint x="690" y="440" as="sourcePoint" />
            <mxPoint x="550" y="430" as="targetPoint" />
          </mxGeometry>
        </mxCell>
        <mxCell id="Bet7bIUid-jiXLrSmDMM-23" value="Tiger" style="swimlane;fontStyle=0;childLayout=stackLayout;horizontal=1;startSize=26;fillColor=none;horizontalStack=0;resizeParent=1;resizeParentMax=0;resizeLast=0;collapsible=1;marginBottom=0;whiteSpace=wrap;html=1;" vertex="1" parent="1">
          <mxGeometry x="620" y="590" width="140" height="52" as="geometry" />
        </mxCell>
        <mxCell id="Bet7bIUid-jiXLrSmDMM-24" value="makeNoise()" style="text;strokeColor=none;fillColor=none;align=left;verticalAlign=top;spacingLeft=4;spacingRight=4;overflow=hidden;rotatable=0;points=[[0,0.5],[1,0.5]];portConstraint=eastwest;whiteSpace=wrap;html=1;" vertex="1" parent="Bet7bIUid-jiXLrSmDMM-23">
          <mxGeometry y="26" width="140" height="26" as="geometry" />
        </mxCell>
        <mxCell id="Bet7bIUid-jiXLrSmDMM-25" value="Lion" style="swimlane;fontStyle=0;childLayout=stackLayout;horizontal=1;startSize=26;fillColor=none;horizontalStack=0;resizeParent=1;resizeParentMax=0;resizeLast=0;collapsible=1;marginBottom=0;whiteSpace=wrap;html=1;" vertex="1" parent="1">
          <mxGeometry x="740" y="520" width="140" height="52" as="geometry" />
        </mxCell>
        <mxCell id="Bet7bIUid-jiXLrSmDMM-26" value="makeNoise()" style="text;strokeColor=none;fillColor=none;align=left;verticalAlign=top;spacingLeft=4;spacingRight=4;overflow=hidden;rotatable=0;points=[[0,0.5],[1,0.5]];portConstraint=eastwest;whiteSpace=wrap;html=1;" vertex="1" parent="Bet7bIUid-jiXLrSmDMM-25">
          <mxGeometry y="26" width="140" height="26" as="geometry" />
        </mxCell>
        <mxCell id="Bet7bIUid-jiXLrSmDMM-27" value="Cat" style="swimlane;fontStyle=0;childLayout=stackLayout;horizontal=1;startSize=26;fillColor=none;horizontalStack=0;resizeParent=1;resizeParentMax=0;resizeLast=0;collapsible=1;marginBottom=0;whiteSpace=wrap;html=1;" vertex="1" parent="1">
          <mxGeometry x="860" y="590" width="140" height="52" as="geometry" />
        </mxCell>
        <mxCell id="Bet7bIUid-jiXLrSmDMM-28" value="makeNoise()" style="text;strokeColor=none;fillColor=none;align=left;verticalAlign=top;spacingLeft=4;spacingRight=4;overflow=hidden;rotatable=0;points=[[0,0.5],[1,0.5]];portConstraint=eastwest;whiteSpace=wrap;html=1;" vertex="1" parent="Bet7bIUid-jiXLrSmDMM-27">
          <mxGeometry y="26" width="140" height="26" as="geometry" />
        </mxCell>
        <mxCell id="Bet7bIUid-jiXLrSmDMM-29" value="" style="endArrow=open;endFill=1;endSize=12;html=1;rounded=0;entryX=0.467;entryY=1.162;entryDx=0;entryDy=0;entryPerimeter=0;" edge="1" parent="1" target="Bet7bIUid-jiXLrSmDMM-8">
          <mxGeometry width="160" relative="1" as="geometry">
            <mxPoint x="680" y="590" as="sourcePoint" />
            <mxPoint x="850" y="440" as="targetPoint" />
          </mxGeometry>
        </mxCell>
        <mxCell id="Bet7bIUid-jiXLrSmDMM-30" value="" style="endArrow=open;endFill=1;endSize=12;html=1;rounded=0;exitX=0.416;exitY=-0.058;exitDx=0;exitDy=0;exitPerimeter=0;" edge="1" parent="1" source="Bet7bIUid-jiXLrSmDMM-25">
          <mxGeometry width="160" relative="1" as="geometry">
            <mxPoint x="690" y="440" as="sourcePoint" />
            <mxPoint x="770" y="430" as="targetPoint" />
          </mxGeometry>
        </mxCell>
        <mxCell id="Bet7bIUid-jiXLrSmDMM-31" value="" style="endArrow=open;endFill=1;endSize=12;html=1;rounded=0;exitX=0.5;exitY=0;exitDx=0;exitDy=0;" edge="1" parent="1" source="Bet7bIUid-jiXLrSmDMM-27">
          <mxGeometry width="160" relative="1" as="geometry">
            <mxPoint x="690" y="440" as="sourcePoint" />
            <mxPoint x="780" y="440" as="targetPoint" />
          </mxGeometry>
        </mxCell>
        <mxCell id="Bet7bIUid-jiXLrSmDMM-32" value="Wolf" style="swimlane;fontStyle=0;childLayout=stackLayout;horizontal=1;startSize=26;fillColor=none;horizontalStack=0;resizeParent=1;resizeParentMax=0;resizeLast=0;collapsible=1;marginBottom=0;whiteSpace=wrap;html=1;" vertex="1" parent="1">
          <mxGeometry x="910" y="490" width="140" height="52" as="geometry" />
        </mxCell>
        <mxCell id="Bet7bIUid-jiXLrSmDMM-33" value="makeNoise()" style="text;strokeColor=none;fillColor=none;align=left;verticalAlign=top;spacingLeft=4;spacingRight=4;overflow=hidden;rotatable=0;points=[[0,0.5],[1,0.5]];portConstraint=eastwest;whiteSpace=wrap;html=1;" vertex="1" parent="Bet7bIUid-jiXLrSmDMM-32">
          <mxGeometry y="26" width="140" height="26" as="geometry" />
        </mxCell>
        <mxCell id="Bet7bIUid-jiXLrSmDMM-34" value="Dog" style="swimlane;fontStyle=0;childLayout=stackLayout;horizontal=1;startSize=26;fillColor=none;horizontalStack=0;resizeParent=1;resizeParentMax=0;resizeLast=0;collapsible=1;marginBottom=0;whiteSpace=wrap;html=1;" vertex="1" parent="1">
          <mxGeometry x="1080" y="528" width="140" height="52" as="geometry" />
        </mxCell>
        <mxCell id="Bet7bIUid-jiXLrSmDMM-35" value="makeNoise()" style="text;strokeColor=none;fillColor=none;align=left;verticalAlign=top;spacingLeft=4;spacingRight=4;overflow=hidden;rotatable=0;points=[[0,0.5],[1,0.5]];portConstraint=eastwest;whiteSpace=wrap;html=1;" vertex="1" parent="Bet7bIUid-jiXLrSmDMM-34">
          <mxGeometry y="26" width="140" height="26" as="geometry" />
        </mxCell>
        <mxCell id="Bet7bIUid-jiXLrSmDMM-36" value="" style="endArrow=open;endFill=1;endSize=12;html=1;rounded=0;exitX=0.5;exitY=0;exitDx=0;exitDy=0;entryX=0.459;entryY=1.069;entryDx=0;entryDy=0;entryPerimeter=0;" edge="1" parent="1" source="Bet7bIUid-jiXLrSmDMM-32" target="Bet7bIUid-jiXLrSmDMM-10">
          <mxGeometry width="160" relative="1" as="geometry">
            <mxPoint x="690" y="440" as="sourcePoint" />
            <mxPoint x="850" y="440" as="targetPoint" />
          </mxGeometry>
        </mxCell>
        <mxCell id="Bet7bIUid-jiXLrSmDMM-37" value="" style="endArrow=open;endFill=1;endSize=12;html=1;rounded=0;exitX=0.456;exitY=-0.027;exitDx=0;exitDy=0;exitPerimeter=0;entryX=0.493;entryY=1.162;entryDx=0;entryDy=0;entryPerimeter=0;" edge="1" parent="1" source="Bet7bIUid-jiXLrSmDMM-34" target="Bet7bIUid-jiXLrSmDMM-10">
          <mxGeometry width="160" relative="1" as="geometry">
            <mxPoint x="690" y="440" as="sourcePoint" />
            <mxPoint x="850" y="440" as="targetPoint" />
          </mxGeometry>
        </mxCell>
        <mxCell id="Bet7bIUid-jiXLrSmDMM-38" value="Pet" style="swimlane;fontStyle=0;childLayout=stackLayout;horizontal=1;startSize=26;fillColor=none;horizontalStack=0;resizeParent=1;resizeParentMax=0;resizeLast=0;collapsible=1;marginBottom=0;whiteSpace=wrap;html=1;" vertex="1" parent="1">
          <mxGeometry x="1101" y="257" width="140" height="78" as="geometry" />
        </mxCell>
        <mxCell id="Bet7bIUid-jiXLrSmDMM-39" value="play()" style="text;strokeColor=none;fillColor=none;align=left;verticalAlign=top;spacingLeft=4;spacingRight=4;overflow=hidden;rotatable=0;points=[[0,0.5],[1,0.5]];portConstraint=eastwest;whiteSpace=wrap;html=1;" vertex="1" parent="Bet7bIUid-jiXLrSmDMM-38">
          <mxGeometry y="26" width="140" height="26" as="geometry" />
        </mxCell>
        <mxCell id="Bet7bIUid-jiXLrSmDMM-40" value="takeForWalk()" style="text;strokeColor=none;fillColor=none;align=left;verticalAlign=top;spacingLeft=4;spacingRight=4;overflow=hidden;rotatable=0;points=[[0,0.5],[1,0.5]];portConstraint=eastwest;whiteSpace=wrap;html=1;" vertex="1" parent="Bet7bIUid-jiXLrSmDMM-38">
          <mxGeometry y="52" width="140" height="26" as="geometry" />
        </mxCell>
        <mxCell id="Bet7bIUid-jiXLrSmDMM-42" value="" style="endArrow=block;dashed=1;endFill=0;endSize=12;html=1;rounded=0;exitX=0.5;exitY=0;exitDx=0;exitDy=0;entryX=0.464;entryY=1.077;entryDx=0;entryDy=0;entryPerimeter=0;" edge="1" parent="1" source="Bet7bIUid-jiXLrSmDMM-34" target="Bet7bIUid-jiXLrSmDMM-40">
          <mxGeometry width="160" relative="1" as="geometry">
            <mxPoint x="750" y="460" as="sourcePoint" />
            <mxPoint x="910" y="460" as="targetPoint" />
          </mxGeometry>
        </mxCell>
        <mxCell id="Bet7bIUid-jiXLrSmDMM-43" value="" style="endArrow=block;dashed=1;endFill=0;endSize=12;html=1;rounded=0;entryX=0.424;entryY=1.138;entryDx=0;entryDy=0;entryPerimeter=0;" edge="1" parent="1" target="Bet7bIUid-jiXLrSmDMM-40">
          <mxGeometry width="160" relative="1" as="geometry">
            <mxPoint x="930" y="590" as="sourcePoint" />
            <mxPoint x="910" y="460" as="targetPoint" />
          </mxGeometry>
        </mxCell>
      </root>
    </mxGraphModel>
  </diagram>
</mxfile>
